<?xml version="1.0" encoding="utf-8"?>
<!-- Generator: Adobe Illustrator 24.3.0, SVG Export Plug-In . SVG Version: 6.00 Build 0)  -->
<svg version="1.1" id="Layer_1" xmlns="http://www.w3.org/2000/svg" xmlns:xlink="http://www.w3.org/1999/xlink" x="0px" y="0px"
	 viewBox="0 0 640 165" style="enable-background:new 0 0 640 165;" xml:space="preserve">
<style type="text/css">
	.st0{enable-background:new    ;}
	.st1{fill:#FF0000;}
	.st2{fill:#333333;}
	.st3{fill:#FF0000;stroke:#ED1C24;stroke-width:0.25;stroke-miterlimit:10;}
	.st4{display:none;enable-background:new    ;}
	.st5{display:inline;fill:#333333;}
	.st6{display:none;fill:none;stroke:#333333;stroke-width:3;stroke-miterlimit:10;}
</style>
<g class="st0">
	<path class="st1" d="M324.5,15c-0.1,0.3-0.2,0.5-0.3,0.7c-0.1,0.2-0.2,0.5-0.3,0.7l-0.1,0.1c-0.1,0.3-0.2,0.7-0.3,0.9
		c-0.1,0.3-0.2,0.5-0.3,0.8V49l13.9-13c3.5,2.8,7.2,5.4,11.1,8s7.7,4.9,11.6,6.9h1.4V18.2c-0.1-0.3-0.2-0.5-0.3-0.8
		c-0.1-0.3-0.3-0.6-0.3-0.9c-0.1-0.1-0.2-0.2-0.2-0.3c0-0.1-0.1-0.2-0.2-0.3c-0.1-0.2-0.2-0.3-0.3-0.5c-0.1-0.2-0.2-0.3-0.3-0.5
		h27.9c-0.1,0.3-0.2,0.5-0.3,0.8c-0.1,0.3-0.3,0.5-0.5,0.8c-0.1,0.3-0.2,0.6-0.3,0.9c-0.1,0.3-0.1,0.5-0.1,0.8v80.6
		c0.1,0.6,0.3,1.3,0.7,2c0.4,0.7,0.7,1.4,1.1,2.1h-28.6c0.1-0.1,0.2-0.2,0.2-0.3c0-0.1,0.1-0.3,0.2-0.5c0.2-0.3,0.4-0.7,0.5-1.1
		c0.2-0.4,0.4-0.8,0.5-1.2c0.1-0.2,0.2-0.3,0.2-0.5s0.1-0.3,0.1-0.5V53c-0.4,0-0.7,0-1.1,0.1s-0.7,0.2-1,0.3
		c-0.7,0.2-1.4,0.4-2.1,0.6s-1.3,0.6-2,0.9c-1.7,1.8-3.4,3.7-5,5.6c-1.6,1.9-3.1,3.9-4.6,5.9c-3.5-2.9-7-5.5-10.8-8
		c-3.7-2.5-7.6-4.8-11.6-6.9v47.6c0.1,0.2,0.2,0.4,0.3,0.7c0.1,0.3,0.2,0.5,0.3,0.7c0.2,0.4,0.4,0.9,0.5,1.3
		c0.2,0.4,0.3,0.9,0.4,1.3l-29.3,0.3c0.1-0.1,0.2-0.2,0.2-0.3c0-0.1,0.1-0.3,0.2-0.5c0.2-0.3,0.4-0.7,0.5-1.1
		c0.2-0.4,0.4-0.8,0.5-1.2c0.1-0.2,0.2-0.3,0.2-0.5s0.1-0.3,0.1-0.5v-81c0-0.1,0-0.2-0.1-0.2c-0.2-0.3-0.3-0.8-0.5-1.4
		c-0.1-0.1-0.1-0.2-0.1-0.3c0-0.1,0-0.2-0.1-0.3c-0.1-0.2-0.2-0.3-0.2-0.5s-0.1-0.3-0.2-0.5L324.5,15L324.5,15L324.5,15z"/>
	<path class="st1" d="M437,45.4c5.5,2.2,9.7,5.6,12.5,10.3s4.3,9.6,4.5,14.7c0,0.3,0,0.5,0,0.7s0,0.4,0,0.6c0,0.8,0,1.5-0.1,2.3
		c0,0.7-0.1,1.5-0.2,2.3c-0.5,3-1.3,6-2.6,8.9c-1.3,2.9-3,5.6-5.2,8c-0.7,0.7-1.6,1.3-2.6,1.8s-2,1-3,1.3c-0.5,0.2-1.1,0.3-1.6,0.5
		c-0.5,0.1-1,0.3-1.6,0.5c-2.5,0.9-5.1,1.9-7.6,3s-4.9,2.3-7.3,3.6L405,98.5c-5.4-2.3-9.5-5.7-12.5-10.2s-4.4-9.4-4.4-14.6
		c0-1,0-2.1,0.1-3.2s0.3-2.2,0.5-3.4c0.2-0.8,0.4-1.6,0.6-2.5s0.5-1.7,0.9-2.5L398,49c4.1-1.1,8.1-2.5,12-4.1s7.7-3.5,11.2-5.7
		L437,45.4z M397.7,56.2c-0.8,1.6-1.3,3.2-1.6,4.9c0,0.4,0,0.8-0.1,1.2c0,0.4-0.1,0.8-0.1,1.1c0,0.2,0,0.4,0,0.6s0,0.5,0.1,0.7
		c0,0.4,0,0.9,0.1,1.3s0.1,0.8,0.1,1.2c0.1,0.2,0.2,0.3,0.2,0.5s0.1,0.3,0.1,0.5c3,6.6,7.6,11.3,13.9,14.1c6.2,2.8,12.8,5,19.6,6.7
		c1.2,0.3,2.4,0.5,3.5,0.8s2.3,0.5,3.5,0.8c0.7,0.1,1.4,0.2,2.1,0.4c0.7,0.2,1.4,0.3,2.1,0.5c0.7-0.9,1.3-1.8,1.9-2.9
		c0.5-1,0.9-2.1,1.2-3.1c0.2-0.9,0.3-1.7,0.4-2.5s0.1-1.5,0.1-2.2c0-0.2,0-0.3,0-0.5s0-0.3,0-0.4c-0.2-2.8-1-5.4-2.5-7.9
		s-3.6-4.6-6.3-6.4c-4.2-2.6-8.8-4.8-13.7-6.7c-4.9-1.9-9.9-3.5-15-4.8c-0.6-0.2-1.3-0.3-1.9-0.5c-0.6-0.1-1.3-0.3-1.9-0.5
		c-0.1,0-0.2,0-0.4-0.1c-0.2,0-0.4-0.1-0.5-0.1c-0.3,0-0.5,0-0.6-0.1c-0.1,0-0.3-0.1-0.5-0.1H401C399.6,53.6,398.5,54.7,397.7,56.2z
		"/>
	<path class="st1" d="M471.3,39.5c0.7,0.6,1.5,1.4,2.4,2.3c0.5,0.4,0.9,0.9,1.4,1.4s0.9,1,1.4,1.4c0.5,0.5,0.9,1,1.4,1.5
		s0.9,1,1.2,1.5l23.6-8.6c0.2,0,0.4,0,0.5,0.1c0.2,0,0.4,0.1,0.5,0.2c2.9,0.7,5.7,1.7,8.4,3c2.7,1.3,5,3.1,6.9,5.4l23-8.6
		c0.1,0,0.2,0,0.3,0s0.3,0,0.5,0c3.5,0.3,7,1.2,10.3,2.9s5.9,4.1,7.7,7.2c0.2,0.6,0.3,1.3,0.5,2.1c0.1,0.8,0.2,1.5,0.3,2.2
		c0.2,0.8,0.3,1.5,0.3,2.3c0,0.7,0.1,1.5,0.1,2.2v39.4c0,0.5,0,1,0.1,1.4s0.2,0.9,0.4,1.3c0,0.3,0,0.5,0.1,0.7s0.2,0.5,0.3,0.7
		c0.1,0.3,0.2,0.5,0.2,0.7s0.1,0.5,0.2,0.7H539c0.4-0.9,0.9-1.8,1.3-2.7c0.4-0.9,0.6-1.9,0.7-2.9V57.6c-0.6-2-1.8-3.7-3.4-5.2
		c-1.7-1.5-3.6-2.2-6-2.2L521,53.5v43.9l1.7,5.6h-25.4l2.7-5.6V59c-0.3-2.6-1.4-4.5-3.4-5.8s-4.1-2-6.5-2.2c-0.2,0-0.4,0-0.6,0
		s-0.4,0-0.6,0c-1.3,0-2.5,0.1-3.8,0.4c-1.3,0.3-2.5,0.7-3.6,1.3c-0.2,0.1-0.4,0.2-0.5,0.3c-0.2,0.1-0.4,0.2-0.5,0.3
		c0,0.1,0,0.2-0.1,0.3c-0.3,0.2-0.5,0.3-0.7,0.5c-0.2,0.1-0.4,0.2-0.6,0.3v43.1l1.5,5.6h-24.7l2.2-5.6v-44c-0.3-1.4-0.9-2.5-1.8-3.4
		s-2-1.6-3.1-2.1c3.2-0.9,6.2-2,9.2-3.5c2.8-1.4,5.4-3,8-5C470.7,39.4,470.9,39.4,471.3,39.5z"/>
	<path class="st1" d="M622.9,55.3L584,78.8c0.1,0.1,0.2,0.2,0.2,0.2s0.1,0.1,0.2,0.2c3.1,2.4,6.5,4.7,10.3,6.7s7.8,3.1,11.8,3.1
		l12.3-0.3c-2.5,1.3-4.7,2.7-6.6,4.1c-2,1.5-3.9,3-5.8,4.7c-0.8,0.8-1.6,1.5-2.5,2.3c-0.8,0.7-1.7,1.5-2.6,2.3c-0.6,0.3-1.3,0.7-2,1
		s-1.4,0.6-2.1,0.6c-1-0.2-2-0.4-3.1-0.6c-1-0.2-2.1-0.5-3.1-0.7c-7.2-2.2-13.7-5.9-19.6-11.2c-5.9-5.3-8.8-11.6-8.8-18.7
		c0-0.3,0-0.6,0.1-0.9c0-0.3,0.1-0.7,0.2-1.2c0-0.1,0-0.2,0-0.3c0.1-0.3,0.2-0.7,0.2-1s0.1-0.6,0.1-0.8c1.8-8,6-14.1,12.7-18.4
		c6.6-4.3,13.7-7.6,21.2-10c0.5-0.2,1.1-0.3,1.6-0.5c0.5-0.1,1.1-0.3,1.6-0.5L622.9,55.3z M579.9,53.4c-0.8,1.6-1.4,3.3-1.8,4.9
		c-0.1,0.7-0.2,1.4-0.3,2.1c-0.1,0.7-0.1,1.4-0.1,2.1c0,2.1,0.3,4.1,1,6.2c0.7,2,1.5,4,2.5,6l20.3-11.9c-2.6-2.9-5.5-5.6-8.6-7.9
		s-6.5-4.4-10-6.2C581.6,50.2,580.6,51.8,579.9,53.4z"/>
</g>
<g class="st0">
	<path class="st2" d="M92.4,141.6h-6.3v9.7c0,1.4-0.3,2.4-1,3.1c-0.7,0.7-1.5,1.1-2.5,1.1s-1.9-0.4-2.5-1.1c-0.6-0.7-1-1.7-1-3.1
		V125c0-1.5,0.3-2.6,1-3.3s1.8-1,3.3-1h8.9c2.6,0,4.6,0.2,6.1,0.6c1.4,0.4,2.6,1,3.6,1.9s1.8,2,2.3,3.3s0.8,2.8,0.8,4.4
		c0,3.5-1.1,6.1-3.2,7.9C99.8,140.7,96.7,141.6,92.4,141.6z M90.7,126H86v10.4h4.7c1.6,0,3-0.2,4.1-0.5s1.9-0.9,2.5-1.7
		s0.9-1.8,0.9-3.1c0-1.5-0.4-2.7-1.3-3.7C95.9,126.5,93.8,126,90.7,126z"/>
</g>
<g class="st0">
	<path class="st2" d="M128.6,151.1l-1.6-4.3h-13.9l-1.6,4.4c-0.6,1.7-1.2,2.9-1.6,3.5s-1.2,0.9-2.2,0.9c-0.9,0-1.6-0.3-2.3-1
		c-0.7-0.6-1-1.4-1-2.2c0-0.5,0.1-0.9,0.2-1.4s0.4-1.2,0.8-2.1l8.7-22.2c0.2-0.6,0.5-1.4,0.9-2.3s0.7-1.6,1.1-2.2s0.9-1.1,1.6-1.4
		c0.6-0.4,1.4-0.5,2.4-0.5s1.8,0.2,2.4,0.5c0.6,0.4,1.2,0.8,1.6,1.4s0.7,1.2,1,1.9c0.3,0.7,0.6,1.5,1,2.6l8.9,22
		c0.7,1.7,1,2.9,1,3.7s-0.3,1.5-1,2.2s-1.5,1-2.4,1c-0.5,0-1-0.1-1.4-0.3s-0.7-0.5-1-0.8s-0.5-0.8-0.9-1.5
		C129.1,152.2,128.9,151.6,128.6,151.1z M114.9,141.6h10.2l-5.2-14.1L114.9,141.6z"/>
</g>
<g class="st0">
	<path class="st2" d="M169,144.1c0,1.1-0.3,2.3-0.8,3.5c-0.5,1.3-1.4,2.5-2.5,3.7s-2.6,2.2-4.4,3c-1.8,0.8-3.9,1.1-6.2,1.1
		c-1.8,0-3.4-0.2-4.9-0.5s-2.8-0.9-4-1.6s-2.3-1.7-3.3-2.9c-0.9-1.1-1.7-2.3-2.3-3.6s-1.1-2.7-1.4-4.3c-0.3-1.5-0.5-3.1-0.5-4.8
		c0-2.8,0.4-5.2,1.2-7.4s1.9-4,3.4-5.6c1.5-1.5,3.2-2.7,5.2-3.5s4.1-1.2,6.4-1.2c2.8,0,5.2,0.6,7.4,1.7s3.8,2.5,5,4.1
		c1.1,1.6,1.7,3.2,1.7,4.6c0,0.8-0.3,1.5-0.8,2.1c-0.6,0.6-1.2,0.9-2,0.9c-0.9,0-1.5-0.2-2-0.6c-0.4-0.4-0.9-1.1-1.5-2.2
		c-0.9-1.7-2-3-3.2-3.8s-2.7-1.3-4.5-1.3c-2.8,0-5.1,1.1-6.8,3.2c-1.7,2.2-2.5,5.2-2.5,9.2c0,2.7,0.4,4.9,1.1,6.6
		c0.7,1.8,1.8,3.1,3.2,4s3,1.3,4.8,1.3c2,0,3.7-0.5,5-1.5c1.4-1,2.4-2.4,3.1-4.3c0.3-0.9,0.7-1.6,1.1-2.2c0.4-0.6,1.1-0.9,2.1-0.9
		c0.8,0,1.5,0.3,2.1,0.9C168.7,142.6,169,143.3,169,144.1z"/>
	<path class="st2" d="M182.2,124.4v12l13.6-14.2c0.7-0.7,1.2-1.2,1.7-1.5s1.1-0.5,1.8-0.5c1,0,1.8,0.3,2.4,0.9
		c0.6,0.6,0.9,1.3,0.9,2.1c0,1-0.5,2-1.6,3l-8.4,8l9.7,13.9c0.7,1,1.2,1.8,1.5,2.5s0.5,1.4,0.5,2.1c0,0.8-0.3,1.4-0.9,2
		c-0.6,0.6-1.4,0.8-2.4,0.8s-1.7-0.2-2.4-0.6c-0.6-0.4-1.1-1-1.5-1.6s-0.8-1.3-1.1-1.9l-8.2-12.6l-5.7,5.4v7.1c0,1.4-0.3,2.5-1,3.2
		s-1.5,1-2.5,1c-0.6,0-1.2-0.2-1.7-0.5s-1-0.7-1.3-1.3c-0.2-0.4-0.3-0.9-0.4-1.5c0-0.6-0.1-1.4-0.1-2.5v-25.4c0-1.4,0.3-2.4,0.9-3.1
		c0.6-0.7,1.4-1,2.5-1c1,0,1.9,0.3,2.5,1C181.9,121.9,182.2,123,182.2,124.4z"/>
	<path class="st2" d="M233.1,126.1h-15.6v8.4h14.4c1.1,0,1.8,0.2,2.4,0.7c0.5,0.5,0.8,1.1,0.8,1.9c0,0.8-0.3,1.4-0.8,1.9
		s-1.3,0.7-2.4,0.7h-14.4v9.7h16.1c1.1,0,1.9,0.3,2.5,0.8s0.8,1.2,0.8,2s-0.3,1.5-0.8,2c-0.6,0.5-1.4,0.8-2.5,0.8h-18.8
		c-1.5,0-2.6-0.3-3.3-1s-1-1.7-1-3.2V125c0-1,0.1-1.8,0.4-2.4c0.3-0.6,0.8-1.1,1.4-1.4c0.6-0.3,1.4-0.4,2.4-0.4H233
		c1.1,0,1.9,0.2,2.5,0.7c0.5,0.5,0.8,1.1,0.8,1.9s-0.3,1.5-0.8,1.9C235,125.9,234.2,126.1,233.1,126.1z"/>
	<path class="st2" d="M251.7,140.3h-2.4v11c0,1.4-0.3,2.5-1,3.2c-0.6,0.7-1.5,1-2.5,1c-1.1,0-2-0.4-2.6-1.1
		c-0.6-0.7-0.9-1.8-0.9-3.1V125c0-1.5,0.3-2.6,1-3.2c0.7-0.7,1.7-1,3.2-1h11.3c1.6,0,2.9,0.1,4,0.2s2.1,0.4,3,0.8
		c1.1,0.5,2,1.1,2.8,1.9s1.4,1.8,1.9,2.9c0.4,1.1,0.6,2.3,0.6,3.5c0,2.5-0.7,4.6-2.2,6.1c-1.4,1.5-3.6,2.6-6.5,3.2
		c1.2,0.7,2.4,1.6,3.5,2.9c1.1,1.3,2.1,2.6,3,4.1c0.9,1.4,1.6,2.7,2.1,3.9s0.7,2,0.7,2.4c0,0.5-0.1,0.9-0.4,1.3
		c-0.3,0.4-0.7,0.8-1.2,1c-0.5,0.3-1.1,0.4-1.7,0.4c-0.8,0-1.4-0.2-2-0.5c-0.5-0.4-1-0.8-1.4-1.4c-0.4-0.6-0.9-1.4-1.5-2.5l-2.8-4.6
		c-1-1.7-1.9-3-2.7-3.9c-0.8-0.9-1.6-1.5-2.4-1.8C254,140.5,253,140.3,251.7,140.3z M255.7,126h-6.4v9.4h6.2c1.7,0,3.1-0.1,4.2-0.4
		c1.1-0.3,2-0.8,2.6-1.5s0.9-1.6,0.9-2.9c0-0.9-0.2-1.8-0.7-2.5s-1.2-1.3-2-1.6C259.7,126.1,258.1,126,255.7,126z"/>
	<path class="st2" d="M302.7,144.7c0,2.1-0.5,3.9-1.6,5.6c-1.1,1.6-2.6,2.9-4.7,3.9c-2.1,0.9-4.5,1.4-7.3,1.4
		c-3.4,0-6.2-0.6-8.3-1.9c-1.6-0.9-2.8-2.1-3.8-3.7c-1-1.5-1.5-3-1.5-4.5c0-0.8,0.3-1.6,0.9-2.2c0.6-0.6,1.3-0.9,2.2-0.9
		c0.7,0,1.3,0.2,1.9,0.7c0.5,0.5,0.9,1.2,1.3,2.1c0.4,1.1,0.9,2,1.4,2.7s1.2,1.3,2.1,1.8s2.1,0.7,3.6,0.7c2.1,0,3.7-0.5,5-1.4
		c1.3-1,1.9-2.1,1.9-3.6c0-1.1-0.3-2.1-1-2.8s-1.6-1.2-2.7-1.6c-1.1-0.4-2.6-0.8-4.4-1.2c-2.5-0.6-4.5-1.2-6.2-2s-3-1.8-3.9-3.1
		c-1-1.3-1.5-3-1.5-5c0-1.9,0.5-3.5,1.5-5s2.5-2.6,4.5-3.4c1.9-0.8,4.2-1.2,6.9-1.2c2.1,0,3.9,0.3,5.4,0.8s2.8,1.2,3.8,2.1
		s1.7,1.8,2.2,2.7c0.5,0.9,0.7,1.9,0.7,2.8c0,0.8-0.3,1.6-0.9,2.2c-0.6,0.7-1.3,1-2.2,1c-0.8,0-1.4-0.2-1.8-0.6
		c-0.4-0.4-0.9-1-1.3-1.9c-0.6-1.3-1.4-2.3-2.2-3c-0.9-0.7-2.3-1.1-4.2-1.1c-1.8,0-3.2,0.4-4.3,1.2c-1.1,0.8-1.6,1.7-1.6,2.8
		c0,0.7,0.2,1.3,0.6,1.8s0.9,0.9,1.5,1.3c0.7,0.4,1.3,0.6,2,0.8s1.8,0.5,3.3,0.9c1.9,0.5,3.7,0.9,5.2,1.5c1.6,0.5,2.9,1.2,4,2
		s1.9,1.8,2.6,2.9C302.4,141.5,302.7,143,302.7,144.7z"/>
	<path class="st2" d="M324.2,128c0-1.4,0.4-2.8,1.1-4c0.8-1.2,1.9-2.1,3.3-2.8s3.2-1,5.2-1s3.7,0.4,5.1,1.1s2.5,1.7,3.2,2.9
		c0.7,1.2,1.1,2.4,1.1,3.7c0,1.7-0.6,3.3-1.7,4.5c-1.1,1.3-2.8,2.6-5.1,3.9c0.8,0.9,1.5,1.8,2.2,2.6s1.3,1.6,1.9,2.3
		s1.2,1.3,1.7,1.8c0.2-0.4,0.6-1.2,1.1-2.4s0.9-2.1,1.4-2.6c0.4-0.5,1-0.8,1.8-0.8c0.7,0,1.4,0.3,1.9,0.8s0.8,1.2,0.8,1.9
		s-0.2,1.7-0.7,2.9s-1.2,2.6-2.1,4.2c0.6,0.5,1.5,1.3,2.7,2.3s2,1.7,2.3,2.1c0.3,0.4,0.4,0.9,0.4,1.5c0,0.8-0.3,1.5-0.9,2
		c-0.6,0.6-1.2,0.8-1.9,0.8c-0.7,0-1.4-0.2-2.1-0.7s-2.1-1.6-4.4-3.4c-1,0.9-2.1,1.7-3.1,2.3c-1.1,0.6-2.2,1.1-3.5,1.4
		s-2.6,0.4-4.1,0.4c-1.9,0-3.7-0.3-5.2-0.9c-1.5-0.6-2.8-1.3-3.9-2.3c-1-1-1.8-2-2.3-3.2s-0.7-2.4-0.7-3.6c0-1.2,0.2-2.2,0.6-3.2
		s0.9-1.8,1.6-2.6s1.5-1.5,2.5-2.2s2.1-1.4,3.4-2.1c-1.2-1.5-2-2.8-2.6-3.9C324.5,130.4,324.2,129.2,324.2,128z M330.8,139.2
		c-1.6,0.9-2.8,1.8-3.6,2.8c-0.8,0.9-1.2,2-1.2,3.3c0,0.7,0.1,1.4,0.4,2.1c0.3,0.7,0.7,1.3,1.3,1.8s1.2,1,1.9,1.3s1.5,0.4,2.3,0.4
		s1.6-0.1,2.3-0.4c0.7-0.2,1.5-0.6,2.1-1.1c0.7-0.5,1.4-1,2.1-1.7c-1.4-1.3-2.6-2.5-3.7-3.8C333.6,142.6,332.3,141,330.8,139.2z
		 M333.2,132.8c1.6-1,2.7-1.9,3.4-2.6s1.1-1.5,1.1-2.5s-0.4-1.8-1.1-2.4c-0.7-0.7-1.6-1-2.7-1s-2,0.3-2.7,1s-1.1,1.5-1.1,2.4
		c0,0.5,0.1,1,0.4,1.5s0.6,1.1,1,1.6S332.5,132,333.2,132.8z"/>
	<path class="st2" d="M380.3,149.8l-5.5-21.8v23.6c0,1.3-0.3,2.3-0.9,2.9c-0.6,0.7-1.4,1-2.3,1s-1.7-0.3-2.3-1s-0.9-1.6-0.9-2.9v-27
		c0-1.5,0.4-2.5,1.2-3c0.8-0.5,1.8-0.8,3.1-0.8h2.1c1.3,0,2.2,0.1,2.8,0.3c0.6,0.2,1,0.7,1.3,1.3c0.3,0.6,0.6,1.6,1,3l5,18.7l5-18.7
		c0.4-1.4,0.7-2.4,1-3s0.7-1,1.3-1.3c0.6-0.2,1.5-0.3,2.8-0.3h2.1c1.3,0,2.4,0.3,3.1,0.8c0.8,0.5,1.2,1.5,1.2,3v27
		c0,1.3-0.3,2.3-0.9,2.9c-0.6,0.7-1.4,1-2.3,1s-1.7-0.3-2.3-1c-0.6-0.7-0.9-1.6-0.9-2.9V128l-5.5,21.8c-0.4,1.4-0.6,2.5-0.9,3.1
		s-0.6,1.3-1.2,1.8s-1.4,0.8-2.5,0.8c-0.8,0-1.5-0.2-2.1-0.5s-1-0.8-1.3-1.3s-0.6-1.1-0.7-1.8C380.6,151.2,380.4,150.5,380.3,149.8z
		"/>
</g>
<g class="st0">
	<path class="st2" d="M423.5,120.2c3.5,0,6.6,0.7,9.1,2.2c2.5,1.4,4.5,3.5,5.8,6.1s2,5.8,2,9.3c0,2.6-0.4,5-1.1,7.2s-1.8,4-3.2,5.6
		s-3.2,2.8-5.3,3.6s-4.5,1.3-7.2,1.3s-5.1-0.4-7.2-1.3s-3.9-2.1-5.3-3.6c-1.4-1.6-2.5-3.5-3.2-5.7s-1.1-4.6-1.1-7.2
		c0-2.6,0.4-5,1.1-7.2c0.8-2.2,1.8-4.1,3.3-5.6s3.2-2.7,5.2-3.5S420.9,120.2,423.5,120.2z M433.3,137.8c0-2.5-0.4-4.7-1.2-6.5
		c-0.8-1.8-2-3.2-3.5-4.2c-1.5-0.9-3.2-1.4-5.2-1.4c-1.4,0-2.7,0.3-3.8,0.8c-1.2,0.5-2.2,1.3-3,2.3c-0.8,1-1.5,2.3-2,3.8
		s-0.7,3.3-0.7,5.2s0.2,3.7,0.7,5.3s1.2,2.9,2.1,3.9s1.9,1.8,3.1,2.3s2.4,0.8,3.8,0.8c1.8,0,3.4-0.4,4.9-1.3
		c1.5-0.9,2.7-2.3,3.5-4.1C432.9,142.7,433.3,140.5,433.3,137.8z"/>
</g>
<g class="st0">
	<path class="st2" d="M450.1,124.7l7.7,22.9l7.8-23.1c0.4-1.2,0.7-2.1,0.9-2.5c0.2-0.5,0.5-0.9,1-1.3s1.1-0.6,1.9-0.6
		c0.6,0,1.1,0.1,1.6,0.4s0.9,0.7,1.2,1.2c0.3,0.5,0.4,1,0.4,1.5c0,0.3,0,0.7-0.1,1.1s-0.2,0.8-0.3,1.2c-0.1,0.4-0.3,0.8-0.4,1.2
		l-8.3,22.3c-0.3,0.9-0.6,1.7-0.9,2.4c-0.3,0.8-0.6,1.4-1,2s-0.9,1.1-1.5,1.4c-0.6,0.4-1.4,0.6-2.4,0.6c-0.9,0-1.7-0.2-2.4-0.5
		c-0.6-0.4-1.2-0.8-1.6-1.4c-0.4-0.6-0.7-1.3-1-2c-0.3-0.8-0.6-1.6-0.9-2.4l-8.1-22.1c-0.1-0.4-0.3-0.8-0.4-1.2
		c-0.1-0.4-0.3-0.8-0.4-1.3s-0.2-0.8-0.2-1.1c0-0.8,0.3-1.5,1-2.2c0.6-0.7,1.4-1,2.4-1c1.2,0,2,0.4,2.5,1.1S449.6,123.1,450.1,124.7
		z"/>
	<path class="st2" d="M500.4,126.1h-15.6v8.4h14.4c1.1,0,1.8,0.2,2.4,0.7c0.5,0.5,0.8,1.1,0.8,1.9c0,0.8-0.3,1.4-0.8,1.9
		s-1.3,0.7-2.4,0.7h-14.4v9.7h16.1c1.1,0,1.9,0.3,2.5,0.8s0.8,1.2,0.8,2s-0.3,1.5-0.8,2c-0.6,0.5-1.4,0.8-2.5,0.8h-18.8
		c-1.5,0-2.6-0.3-3.3-1c-0.7-0.7-1-1.7-1-3.2V125c0-1,0.1-1.8,0.4-2.4s0.8-1.1,1.4-1.4s1.4-0.4,2.4-0.4h18.3c1.1,0,1.9,0.2,2.5,0.7
		c0.5,0.5,0.8,1.1,0.8,1.9s-0.3,1.5-0.8,1.9S501.5,126.1,500.4,126.1z"/>
	<path class="st2" d="M519,140.3h-2.4v11c0,1.4-0.3,2.5-1,3.2c-0.6,0.7-1.5,1-2.5,1c-1.1,0-2-0.4-2.6-1.1c-0.6-0.7-0.9-1.8-0.9-3.1
		V125c0-1.5,0.3-2.6,1-3.2c0.7-0.7,1.7-1,3.2-1h11.3c1.6,0,2.9,0.1,4,0.2s2.1,0.4,3,0.8c1.1,0.5,2,1.1,2.8,1.9s1.4,1.8,1.9,2.9
		c0.4,1.1,0.6,2.3,0.6,3.5c0,2.5-0.7,4.6-2.2,6.1c-1.4,1.5-3.6,2.6-6.5,3.2c1.2,0.7,2.4,1.6,3.5,2.9c1.1,1.3,2.1,2.6,3,4.1
		c0.9,1.4,1.6,2.7,2.1,3.9s0.7,2,0.7,2.4c0,0.5-0.1,0.9-0.4,1.3c-0.3,0.4-0.7,0.8-1.2,1c-0.5,0.3-1.1,0.4-1.7,0.4
		c-0.8,0-1.4-0.2-2-0.5c-0.5-0.4-1-0.8-1.4-1.4s-0.9-1.4-1.5-2.5l-2.8-4.6c-1-1.7-1.9-3-2.7-3.9s-1.6-1.5-2.4-1.8
		C521.3,140.5,520.2,140.3,519,140.3z M523,126h-6.4v9.4h6.2c1.7,0,3.1-0.1,4.2-0.4s2-0.8,2.6-1.5s0.9-1.6,0.9-2.9
		c0-0.9-0.2-1.8-0.7-2.5s-1.2-1.3-2-1.6C526.9,126.1,525.4,126,523,126z"/>
	<path class="st2" d="M570,144.7c0,2.1-0.5,3.9-1.6,5.6c-1.1,1.6-2.6,2.9-4.7,3.9c-2.1,0.9-4.5,1.4-7.3,1.4c-3.4,0-6.2-0.6-8.3-1.9
		c-1.6-0.9-2.8-2.1-3.8-3.7c-1-1.5-1.5-3-1.5-4.5c0-0.8,0.3-1.6,0.9-2.2c0.6-0.6,1.3-0.9,2.2-0.9c0.7,0,1.3,0.2,1.9,0.7
		c0.5,0.5,0.9,1.2,1.3,2.1c0.4,1.1,0.9,2,1.4,2.7s1.2,1.3,2.1,1.8c0.9,0.5,2.1,0.7,3.6,0.7c2.1,0,3.7-0.5,5-1.4
		c1.3-1,1.9-2.1,1.9-3.6c0-1.1-0.3-2.1-1-2.8s-1.6-1.2-2.7-1.6c-1.1-0.4-2.6-0.8-4.4-1.2c-2.5-0.6-4.5-1.2-6.2-2s-3-1.8-3.9-3.1
		c-1-1.3-1.5-3-1.5-5c0-1.9,0.5-3.5,1.5-5s2.5-2.6,4.5-3.4c1.9-0.8,4.2-1.2,6.9-1.2c2.1,0,3.9,0.3,5.4,0.8s2.8,1.2,3.8,2.1
		s1.7,1.8,2.2,2.7c0.5,0.9,0.7,1.9,0.7,2.8c0,0.8-0.3,1.6-0.9,2.2c-0.6,0.7-1.3,1-2.2,1c-0.8,0-1.4-0.2-1.8-0.6
		c-0.4-0.4-0.9-1-1.3-1.9c-0.6-1.3-1.4-2.3-2.2-3c-0.9-0.7-2.3-1.1-4.2-1.1c-1.8,0-3.2,0.4-4.3,1.2c-1.1,0.8-1.6,1.7-1.6,2.8
		c0,0.7,0.2,1.3,0.6,1.8c0.4,0.5,0.9,0.9,1.5,1.3s1.3,0.6,2,0.8s1.8,0.5,3.3,0.9c1.9,0.5,3.7,0.9,5.2,1.5c1.6,0.5,2.9,1.2,4,2
		s1.9,1.8,2.6,2.9C569.7,141.5,570,143,570,144.7z"/>
</g>
<path class="st3" d="M40.5,22.7v56.1c0,0-20.8,12.2-20.8,15.1s-5.9,10.8,10.4,6.9l75.3,1.1c0,0,24.1-13.8,15.2-28.7
	s-20.7-11-20.7-11c-4.1,3.8-7.2,8.5-9,13.8h14.8l-1.4,7.4H76.8L76.1,4.9L40.5,22.7z"/>
<path class="st3" d="M168.1,73.1l14.8-11.9l-20.8-17.8c0,0-5.4-8.9-13.1,0s-19.6,20.8-19.6,20.8s-8.9,4.8,0,11.3l20.8,21.3
	c0,0,9,11.9,17.9,0L191.8,76c0,0-5.9-11.9-11.9-3l-8.9,9c0,0-5.9,3-8.9,0l-17.8-17.8c0,0-3-5.9,5.9-5.9L168.1,73.1z"/>
<path class="st3" d="M234.9,68.3l14.8-11.9L229,38.7c0,0-5.4-8.9-13.1,0s-19.6,20.8-19.6,20.8s-8.9,4.8,0,11.3l20.8,21.3
	c0,0,9,11.9,17.9,0l23.7-20.8c0,0-5.9-11.9-11.9-3l-8.9,8.9c0,0-5.9,3-8.9,0l-17.8-17.8c0,0-3-5.9,5.9-5.9L234.9,68.3z"/>
<g class="st4">
	<path class="st5" d="M586.8,122.2h-1.2v5.7c0,0.7-0.2,1.3-0.5,1.6c-0.3,0.4-0.7,0.5-1.2,0.5s-0.9-0.2-1.2-0.6
		c-0.3-0.4-0.4-0.9-0.4-1.6v-13.5c0-0.8,0.2-1.3,0.5-1.7s0.8-0.5,1.6-0.5h5.4c0.8,0,1.4,0,1.9,0.1s1,0.2,1.4,0.4
		c0.5,0.2,1,0.6,1.4,1s0.7,0.9,0.9,1.5s0.3,1.2,0.3,1.8c0,1.3-0.3,2.4-1,3.1c-0.7,0.8-1.8,1.3-3.2,1.7c0.6,0.3,1.2,0.8,1.7,1.5
		s1,1.4,1.4,2.1s0.8,1.4,1,2s0.4,1,0.4,1.2c0,0.2-0.1,0.5-0.2,0.7c-0.1,0.2-0.3,0.4-0.6,0.5s-0.5,0.2-0.8,0.2
		c-0.4,0-0.7-0.1-0.9-0.3c-0.3-0.2-0.5-0.4-0.7-0.7s-0.4-0.7-0.8-1.3l-1.3-2.4c-0.5-0.9-0.9-1.5-1.3-2c-0.4-0.5-0.8-0.8-1.2-0.9
		S587.4,122.2,586.8,122.2z M588.7,114.8h-3.1v4.8h3c0.8,0,1.5-0.1,2-0.2s1-0.4,1.3-0.8s0.4-0.8,0.4-1.5c0-0.5-0.1-0.9-0.3-1.3
		s-0.6-0.6-1-0.8C590.7,114.9,589.9,114.8,588.7,114.8z"/>
</g>
<circle class="st6" cx="588.2" cy="121.3" r="14.2"/>
</svg>
