<?xml version="1.0" encoding="utf-8"?>
<!-- Generator: Adobe Illustrator 24.3.0, SVG Export Plug-In . SVG Version: 6.00 Build 0)  -->
<svg version="1.1" id="Layer_1" xmlns="http://www.w3.org/2000/svg" xmlns:xlink="http://www.w3.org/1999/xlink" x="0px" y="0px"
	 viewBox="0 0 421.2 254.1" style="enable-background:new 0 0 421.2 254.1;" xml:space="preserve">
<style type="text/css">
	.st0{fill:#FFFFFF;}
	.st1{fill:#1E1916;}
	.st2{fill:#E6E6E6;stroke:#000000;stroke-width:3;stroke-miterlimit:10;}
	.st3{fill:none;stroke:#000000;stroke-width:3;stroke-miterlimit:10;}
	.st4{fill:none;stroke:#000000;stroke-width:2;stroke-miterlimit:10;}
	.st5{opacity:0.4;fill:#FF6E0B;stroke:#ED1C24;stroke-width:3;stroke-miterlimit:10;enable-background:new    ;}
	.st6{opacity:0.4;fill:none;stroke:#ED1C24;stroke-width:2;stroke-miterlimit:10;enable-background:new    ;}
	.st7{fill:#F35A22;}
	.st8{fill:#FFCCBB;}
	.st9{fill:#DA251C;}
	.st10{opacity:0.8;fill:#251D1D;enable-background:new    ;}
	.st11{fill:#251D1D;}
</style>
<path class="st0" d="M141.5,86.4l0.2,67.7l143-1V88.3L209.4,24L141.5,86.4z"/>
<path class="st1" d="M144.7,85.1c-5.2,6.1-14.5,6.3-19.7,1c-5.1-5.4-4.8-13.9,0.7-19c0,0,0,0,0,0c20.6-17.4,41.3-34.7,62-52l6-5
	c1.6-1,4.1-2.7,7-5c4.9-3.8,5.3-4.7,7-5c2.8-0.5,5.2,1.2,13,8c5.2,4.5,7.8,6.8,9,8c5.2,5.3,20.4,18.5,60,50
	c8.2,5.2,9.5,15.5,5.5,20.4s-14.7,5.9-21.5-1.4l-55-46c-2.3-2.1-4.4-3.8-6-5s-2.7-2-4-2s-2.2,0.6-4,2s-3.7,2.9-6,5L144.7,85.1z"/>
<polygon class="st2" points="180.7,140.1 165.2,140.1 149.7,140.1 149.7,114.6 149.7,89.1 165.2,89.1 180.7,89.1 180.7,114.6 "/>
<rect x="239.7" y="89.1" class="st2" width="32" height="51"/>
<line class="st3" x1="239.7" y1="114.6" x2="271.7" y2="114.6"/>
<line class="st3" x1="255.7" y1="89.1" x2="255.7" y2="140.1"/>
<line class="st3" x1="149.2" y1="114.6" x2="180.2" y2="114.6"/>
<line class="st3" x1="165.8" y1="89.6" x2="165.8" y2="139.6"/>
<rect x="139.2" y="140.6" class="st1" width="50" height="13"/>
<rect x="234.2" y="140.6" class="st1" width="51" height="14"/>
<path class="st4" d="M192.6,154.1"/>
<path class="st5" d="M229.2,154.1c0.1-13.4,0.3-24,0.5-31c0.5-17.4,1-24.7-4-32c-1.3-1.9-5.8-8.5-13-9c-8.1-0.6-14.1,6.9-15,8
	c-5.2,6.6-5,13.7-5,31c0,7,0,18.4-0.1,33H229.2z"/>
<ellipse class="st5" cx="211.2" cy="104.6" rx="6.5" ry="7.5"/>
<polygon class="st5" points="208.7,45.2 193.7,60.1 209.4,60.1 223.7,60.1 "/>
<path class="st6" d="M201.7,52.1c3.9,0.8,6.7,4.1,7,8c0-2.2,0.7-4.3,2-6c1-1.3,2.4-2.4,3.9-3"/>
<path class="st7" d="M88.7,104.1c-9.5,4.2-11,21.6-5,28.9c0.5,0.6,2.5,3,4.3,2.6c4.2-0.9,4.2-14.8,4.2-14.8s3.5-2.1,7.1-4.5
	c4.9-3.4,7.3-5.2,7.3-6.7C106.4,106,95.9,100.9,88.7,104.1z"/>
<path class="st8" d="M103.7,110.1c0,0,6.7,4.6,2.8,10.8l3.2,5.2l-3.2,1.5c0,0,2.9,8.7-4,8.1l-6.9-0.6
	C95.7,135,79.7,117.1,103.7,110.1z"/>
<path class="st9" d="M79.7,136.1l-21,32c0,0-25,12-11,13c0,0,7-2,12,3c0,0,9,7,27,4c0,0-2-26,15-30s27.8-2.5,27.8-2.5
	s3.2,5.5,8.2,3.5c0,0,10,3,14-8c0,0-3-8-16-7h-31c0,0-3,0-2-10C102.7,134.1,83.7,124.1,79.7,136.1z"/>
<path class="st10" d="M107,236.3c0,0-3.3,14.8,7.7,12.8c0,0,19-19,21-23s2.9-9-5.6-7c-5.6,1.4-11.1,3-16.4,5L107,236.3z"/>
<path class="st10" d="M16.7,219.1c0,0-23-1-15,10c5.1,7.2,9.5,14.9,13,23c0,0,8,6,9-6s0-15.2,0-15.2L16.7,219.1z"/>
<path class="st1" d="M34.7,207.1c0,0-29,7-24,14c0,0,8.4,7.4,11.7,16.7c0,0,10.8-14.9,21-18.3c0,0,20.3-5.4,22.3-16.4s24,21,24,21
	s10,23,17,16s12.7-19,12.7-19s-30.7-20-32.7-33s-33.5-7.2-33.5-7.2s-1.5,19.2-14.5,25.2S34.7,207.1,34.7,207.1z"/>
<path class="st11" d="M78.5,108.3c0,0,27.1,8.6,35.6,7.1c0,0,5.3-4.8-4.1-5.8c0,0,3.2-7-4.9-16.8s-22.3-0.2-21.4,7
	C83.6,99.8,70.1,101.3,78.5,108.3z"/>
<path class="st7" d="M332.6,104.6c9.5,4.2,11,21.6,5,28.9c-0.5,0.6-2.5,3-4.3,2.6c-4.2-0.9-4.2-14.8-4.2-14.8s-3.5-2.1-7.1-4.5
	c-4.9-3.4-7.3-5.2-7.2-6.7C314.9,106.5,325.3,101.4,332.6,104.6z"/>
<path class="st8" d="M317.6,110.6c0,0-6.7,4.6-2.8,10.8l-3.2,5.2l3.2,1.5c0,0-2.9,8.7,4,8.1l6.9-0.6
	C325.6,135.6,341.6,117.6,317.6,110.6z"/>
<path class="st9" d="M341.6,136.6l21,32c0,0,25,12,11,13c0,0-7-2-12,3c0,0-9,7-27,4c0,0,2-26-15-30s-27.8-2.5-27.8-2.5
	s-3.2,5.5-8.2,3.5c0,0-10,3-14-8c0,0,3-8,16-7h31c0,0,3,0,2-10C318.6,134.6,337.6,124.6,341.6,136.6z"/>
<path class="st10" d="M314.2,236.8c0,0,3.3,14.8-7.7,12.8c0,0-19-19-21-23s-2.9-9,5.5-7c5.6,1.4,11.1,3,16.5,5L314.2,236.8z"/>
<path class="st10" d="M404.6,219.6c0,0,23-1,15,10c-5.1,7.2-9.5,14.9-13,23c0,0-8,6-9-6s0-15.2,0-15.2L404.6,219.6z"/>
<path class="st1" d="M386.6,207.6c0,0,29,7,24,14c0,0-8.4,7.4-11.7,16.7c0,0-10.8-14.9-21-18.3c0,0-20.3-5.4-22.3-16.4s-24,21-24,21
	s-10,23-17,16s-12.7-19-12.7-19s30.7-20,32.7-33s33.5-7.2,33.5-7.2s1.4,19.2,14.4,25.2S386.6,207.6,386.6,207.6z"/>
<path class="st11" d="M342.8,108.8c0,0-27.1,8.6-35.6,7.1c0,0-5.3-4.8,4.1-5.8c0,0-3.2-7,4.9-16.8s22.3-0.2,21.4,7
	C337.6,100.3,351.1,101.8,342.8,108.8z"/>
</svg>
