<svg width="1226" height="240" viewBox="0 0 1226 240" fill="none" xmlns="http://www.w3.org/2000/svg">
<path d="M87.4681 0.710287C72.807 -1.62387 57.8088 1.8454 45.6965 10.3725C33.5843 18.8996 25.3247 31.804 22.6928 46.3125L0.708531 175.714C-0.45677 182.906 -0.182548 190.255 1.51551 197.342C3.21357 204.429 6.30215 211.113 10.6046 217.014C14.907 222.915 20.3389 227.915 26.5896 231.73C32.8402 235.544 39.787 238.098 47.0326 239.245C61.7044 241.659 76.7425 238.221 88.874 229.68C101.005 221.14 109.248 208.187 111.808 193.643L133.4 64.2415C135.757 49.7745 132.249 34.9692 123.641 23.0636C115.034 11.1579 102.028 3.12093 87.4681 0.710287ZM101.601 188.966C99.8004 200.942 93.2975 211.724 83.5136 218.955C73.7298 226.185 61.4606 229.276 49.3881 227.552C37.3708 225.314 26.7379 218.436 19.8203 208.426C12.9028 198.416 10.2652 186.092 12.4858 174.155L21.5151 119.198L110.63 134.009L101.601 188.966ZM113.771 76.7139C110.715 82.5578 105.917 87.3221 100.031 90.3556C91.7864 94.2533 82.7571 92.3044 64.6986 89.5761C58.4174 88.4068 53.3139 87.2375 49.7807 86.458C48.6029 93.4737 47.4252 100.879 45.8549 107.895L31.7221 105.556L43.892 36.5684C44.5863 34.0192 45.7877 31.6337 47.4252 29.5527C56.0619 17.8598 74.513 12.7929 89.8235 17.4701C96.6238 19.7215 102.76 23.6021 107.69 28.7688C112.621 33.9354 116.192 40.2287 118.089 47.092C120.501 57.1517 118.956 67.746 113.771 76.7139Z" fill="black"/>
<path d="M81.9765 30.7205C77.8497 29.9467 73.5888 30.2994 69.648 31.7408C65.7072 33.1823 62.2343 35.6585 59.5996 38.9055C58.056 40.9513 57.1057 43.3775 56.8516 45.9212L52.1406 73.2046C54.8887 73.9841 58.8144 74.7636 63.9179 75.9329C83.5468 80.2203 86.2948 80.2203 88.6503 79.4408C92.4193 78.3205 95.8388 76.2655 98.5862 73.4696C101.334 70.6737 103.318 67.229 104.353 63.4605C108.279 49.4291 96.1093 32.6693 81.9765 30.7205Z" fill="black"/>
<path d="M94.9459 190.914C92.7041 199.806 87.4335 207.655 80.028 213.13C78.4577 214.299 62.7546 225.602 44.3035 219.366C36.2909 216.702 29.4801 211.32 25.0672 204.165C21.0477 197.84 18.7483 190.589 18.3934 183.118C18.3934 179.61 17.2157 158.563 33.7039 146.481C41.4679 141.36 50.7034 138.897 60.0066 139.465L61.1843 154.666C56.129 153.741 50.9088 154.423 46.2664 156.614C42.8916 158.34 39.9353 160.774 37.6027 163.747C35.27 166.721 33.6169 170.162 32.7578 173.833C31.8988 177.504 31.8545 181.317 32.628 185.007C33.4014 188.696 34.9742 192.175 37.2371 195.201C40.4985 200.868 45.8458 205.059 52.155 206.894C57.081 207.845 62.1855 207.16 66.6804 204.945C70.6086 203.103 73.9898 200.284 76.4948 196.76C79.022 193.313 80.6414 189.294 81.2057 185.067L94.9459 190.914Z" fill="#00BE00"/>
<path d="M182 127.114H206.415C213.142 127.233 219.671 124.859 224.726 120.455C227.082 118.201 228.906 115.458 230.067 112.423C231.228 109.387 231.697 106.134 231.44 102.898C231.611 99.5782 231.104 96.2586 229.95 93.1379C228.796 90.0171 227.02 87.1593 224.726 84.7356C222.241 82.557 219.339 80.8979 216.193 79.8577C213.046 78.8175 209.721 78.4174 206.415 78.6815H182L185.052 74.4437V182.206H167.961V61.7301H209.467C216.955 61.5885 224.34 63.4721 230.83 67.1788C236.68 70.7587 241.512 75.7597 244.869 81.7086C248.08 88.1027 249.752 95.1488 249.752 102.292C249.752 109.436 248.08 116.482 244.869 122.876C241.692 128.955 236.818 133.999 230.83 137.406C224.37 141.186 216.964 143.075 209.467 142.855H182V127.114Z" fill="black"/>
<path d="M261.297 182.199V61.7227H278.388V182.199H261.297ZM318.062 182.199V127.107C318.062 121.053 316.841 116.815 313.79 114.999C311.065 112.751 307.554 111.663 304.023 111.972C300.219 111.901 296.453 112.731 293.037 114.393C289.375 116.049 285.898 118.078 282.66 120.447C279.742 122.67 277.433 125.585 275.946 128.923L274.115 111.972C277.109 108.286 280.601 105.026 284.491 102.285C288.233 99.6733 292.348 97.6326 296.699 96.2309C301.065 94.9935 305.587 94.3819 310.127 94.4147C314.992 94.2038 319.829 95.2467 324.166 97.4418C325.897 98.296 327.437 99.4865 328.695 100.942C329.954 102.398 330.904 104.09 331.491 105.917C333.147 109.556 334.178 113.444 334.542 117.42C335.05 121.841 335.254 126.291 335.153 130.739V182.199H318.062Z" fill="black"/>
<path d="M379.176 185.226C373.269 185.38 367.41 184.135 362.085 181.594C357.471 179.324 353.646 175.741 351.098 171.302C348.534 166.454 347.272 161.033 347.436 155.561C347.343 150.29 348.603 145.081 351.098 140.426C353.646 135.987 357.471 132.403 362.085 130.134C367.215 127.657 372.861 126.412 378.565 126.501C385.498 126.182 392.349 128.093 398.097 131.95C403.081 135.782 406.713 141.08 408.474 147.085H398.708V124.685C398.704 120.941 397.412 117.31 395.046 114.393C393.42 112.674 391.421 111.344 389.2 110.505C386.979 109.665 384.595 109.339 382.228 109.55C378.743 109.689 375.274 110.094 371.851 110.761C367.561 111.444 363.427 112.879 359.644 114.999L354.761 101.074C359.428 98.7326 364.341 96.9054 369.41 95.6256C374.199 94.4264 379.119 93.8164 384.059 93.8094C390.257 93.3987 396.433 94.8774 401.76 98.0473C406.372 100.398 410.033 104.244 412.136 108.945C414.563 113.625 415.819 118.816 415.799 124.08V182.199H403.591L399.318 166.458L408.474 164.037C407.053 170.518 403.103 176.177 397.487 179.777C392.078 183.385 385.694 185.284 379.176 185.226ZM382.228 169.485C386.593 169.675 390.896 168.395 394.435 165.853C395.963 164.6 397.193 163.028 398.037 161.249C398.881 159.469 399.319 157.527 399.319 155.561C399.319 153.595 398.881 151.653 398.037 149.874C397.193 148.094 395.963 146.522 394.435 145.269C390.812 142.899 386.568 141.636 382.228 141.636C377.888 141.636 373.643 142.899 370.02 145.269C368.492 146.522 367.262 148.094 366.418 149.874C365.574 151.653 365.136 153.595 365.136 155.561C365.136 157.527 365.574 159.469 366.418 161.249C367.262 163.028 368.492 164.6 370.02 165.853C373.516 168.482 377.85 169.771 382.228 169.485Z" fill="black"/>
<path d="M446.881 96.2309L451.154 119.842V182.199H433.453V96.2309H446.881ZM448.102 126.501L443.83 124.685V111.972L445.661 110.155C447.112 107.652 448.968 105.403 451.154 103.496C453.745 101.142 456.614 99.1087 459.699 97.4417C462.875 95.7212 466.46 94.8845 470.076 95.0201C471.728 94.8821 473.392 95.0884 474.959 95.6255C476.18 96.2309 477.4 96.2309 478.621 96.8363V112.577H473.128C467.197 112.131 461.263 113.393 456.037 116.209C452.166 118.511 449.328 122.193 448.102 126.501Z" fill="black"/>
<path d="M489.07 182.196V96.2277H502.499L506.161 111.363L501.888 111.968C507.188 104.902 514.377 99.4497 522.641 96.2277C526.589 94.9891 530.709 94.3762 534.849 94.4114C539.713 94.2005 544.55 95.2434 548.888 97.4385C550.618 98.2927 552.159 99.4832 553.417 100.939C554.675 102.395 555.626 104.087 556.212 105.914C557.868 109.553 558.9 113.441 559.264 117.417C559.772 121.838 559.976 126.288 559.874 130.736V182.196H542.784V127.103C542.784 121.049 541.563 116.812 538.511 114.995C535.786 112.748 532.276 111.659 528.745 111.968C523.294 112.088 517.994 113.77 513.486 116.812C508.782 119.611 505.137 123.865 503.109 128.92V119.233H506.161V182.196H489.07ZM597.108 182.196V127.103C597.108 121.049 595.887 116.812 592.835 114.995C589.932 113.093 586.547 112.044 583.069 111.968C577.618 112.088 572.318 113.77 567.809 116.812C563.106 119.611 559.46 123.865 557.433 128.92L555.602 111.968C560.902 104.902 568.091 99.4497 576.355 96.2277C580.302 94.9891 584.422 94.3762 588.562 94.4114C593.427 94.2005 598.264 95.2434 602.601 97.4385C604.332 98.2927 605.872 99.4832 607.13 100.939C608.389 102.395 609.339 104.087 609.926 105.914C611.582 109.553 612.613 113.441 612.977 117.417C613.485 121.838 613.689 126.288 613.588 130.736V182.196H597.108Z" fill="black"/>
<path d="M657.535 185.226C651.628 185.38 645.769 184.135 640.444 181.594C635.831 179.324 632.005 175.741 629.458 171.302C626.893 166.454 625.632 161.033 625.795 155.561C625.702 150.29 626.963 145.081 629.458 140.426C632.005 135.987 635.831 132.403 640.444 130.134C645.574 127.657 651.22 126.412 656.925 126.501C663.857 126.182 670.708 128.093 676.457 131.95C681.44 135.782 685.073 141.08 686.833 147.085H677.678V124.685C677.674 120.941 676.382 117.31 674.015 114.393C672.39 112.674 670.391 111.344 668.17 110.505C665.949 109.665 663.564 109.339 661.197 109.55C657.712 109.689 654.243 110.094 650.821 110.761C646.53 111.444 642.397 112.879 638.613 114.999L633.73 101.074C638.398 98.7326 643.31 96.9054 648.379 95.6256C653.169 94.4264 658.089 93.8164 663.029 93.8094C669.227 93.3987 675.403 94.8774 680.73 98.0473C685.341 100.398 689.003 104.244 691.106 108.945C693.533 113.625 694.789 118.816 694.768 124.08V182.199H682.561L678.288 166.458L687.444 164.037C686.023 170.518 682.072 176.177 676.457 179.777C670.86 183.47 664.256 185.372 657.535 185.226ZM660.587 169.485C664.953 169.675 669.255 168.395 672.795 165.853C674.322 164.6 675.552 163.028 676.397 161.249C677.241 159.469 677.678 157.527 677.678 155.561C677.678 153.595 677.241 151.653 676.397 149.874C675.552 148.094 674.322 146.522 672.795 145.269C669.171 142.899 664.927 141.636 660.587 141.636C656.247 141.636 652.003 142.899 648.379 145.269C646.852 146.522 645.622 148.094 644.778 149.874C643.933 151.653 643.496 153.595 643.496 155.561C643.496 157.527 643.933 159.469 644.778 161.249C645.622 163.028 646.852 164.6 648.379 165.853C651.919 168.395 656.221 169.675 660.587 169.485Z" fill="black"/>
<path d="M785.674 181.535C775.291 181.607 765.105 178.72 756.327 173.219C747.82 167.749 741.149 159.89 737.161 150.645C732.26 140.66 729.798 129.671 729.974 118.567C729.805 110.065 731.227 101.605 734.167 93.6171C736.734 86.4542 740.59 79.8123 745.546 74.0136C750.37 68.5204 756.282 64.0716 762.915 60.9447C771.34 57.2851 780.532 55.6982 789.708 56.3187C798.884 56.9393 807.774 59.749 815.62 64.5089C823.711 70.5971 830.441 78.2835 835.385 87.0826L819.813 92.429C816.072 86.019 810.703 80.6936 804.241 76.9838C798.5 74.0782 792.116 72.6484 785.674 72.8255C778.619 72.6868 771.7 74.7662 765.91 78.766C759.943 82.7817 755.183 88.324 752.135 94.8052C748.183 102.088 746.318 110.307 746.744 118.567C746.539 126.617 748.394 134.588 752.135 141.735C755.043 148.304 759.833 153.881 765.91 157.774C771.7 161.773 778.619 163.853 785.674 163.714C792.11 163.825 798.478 162.399 804.241 159.556C810.703 155.846 816.072 150.521 819.813 144.111L835.385 149.457C830.981 158.62 824.15 166.422 815.62 172.031C807.117 178.671 796.484 182.046 785.674 181.535Z" fill="black"/>
<path d="M860.557 180.353C859.259 180.465 857.952 180.311 856.716 179.903C855.48 179.494 854.341 178.839 853.37 177.977C851.31 176.173 849.674 173.943 848.579 171.443C847.302 168.024 846.693 164.395 846.782 160.75V57.9805H862.354V154.81C862.028 156.016 862.006 157.283 862.291 158.499C862.576 159.715 863.158 160.843 863.987 161.783C864.816 162.723 865.866 163.445 867.044 163.887C868.221 164.328 869.49 164.475 870.739 164.314V178.571C869.25 179.313 867.614 179.719 865.948 179.759C864.196 180.249 862.375 180.45 860.557 180.353Z" fill="black"/>
<path d="M918.074 181.54C910.727 181.679 903.481 179.831 897.112 176.194C890.858 172.338 885.865 166.767 882.738 160.155C879.202 152.743 877.557 144.583 877.947 136.393C877.851 128.227 879.484 120.132 882.738 112.631C886.014 106.117 890.974 100.582 897.112 96.5919C903.428 92.7641 910.673 90.7108 918.074 90.6515C925.514 90.4253 932.84 92.5015 939.037 96.5919C945.291 100.447 950.284 106.019 953.411 112.631C956.947 120.043 958.592 128.202 958.202 136.393C958.298 144.559 956.665 152.653 953.411 160.155C950.135 166.669 945.175 172.204 939.037 176.194C932.561 179.562 925.385 181.392 918.074 181.54ZM918.074 164.313C921.38 164.489 924.681 163.881 927.702 162.538C930.723 161.194 933.377 159.156 935.443 156.59C939.917 150.81 942.243 143.677 942.031 136.393C942.24 128.927 939.92 121.607 935.443 115.601C933.377 113.036 930.723 110.997 927.702 109.654C924.681 108.311 921.38 107.702 918.074 107.879C914.777 107.762 911.496 108.397 908.484 109.736C905.473 111.075 902.812 113.082 900.706 115.601C896.232 121.382 893.906 128.515 894.118 135.799C893.806 143.096 896.143 150.263 900.706 155.996C902.782 158.591 905.422 160.687 908.43 162.127C911.438 163.567 914.735 164.314 918.074 164.313Z" fill="black"/>
<path d="M994.121 181.542C987.873 181.647 981.738 179.892 976.507 176.503C971.275 173.114 967.188 168.248 964.773 162.532L976.752 153.622C979.103 157.15 981.923 160.347 985.137 163.126C988.128 165.161 991.693 166.201 995.318 166.097C996.753 166.164 998.186 165.935 999.526 165.424C1000.87 164.913 1002.09 164.13 1003.1 163.126C1004.06 162.2 1004.82 161.091 1005.34 159.866C1005.85 158.641 1006.11 157.325 1006.1 155.998C1006.06 154.346 1005.65 152.723 1004.9 151.246C1003.58 149.574 1001.96 148.163 1000.11 147.087C997.035 145.604 993.827 144.411 990.527 143.523C983.994 141.783 977.883 138.752 972.559 134.612C970.362 132.343 968.689 129.627 967.654 126.652C966.62 123.678 966.25 120.516 966.57 117.385C966.638 112.869 967.658 108.418 969.565 104.316C971.797 100.319 975.118 97.0254 979.148 94.8115C983.538 92.3852 988.497 91.1555 993.522 91.2472C999.469 91.1008 1005.32 92.7588 1010.29 95.9995C1014.64 98.9308 1018.49 102.542 1021.67 106.692L1009.09 116.791C1007.21 114.325 1004.99 112.126 1002.51 110.257C999.376 108.04 995.559 106.988 991.725 107.286C989.114 107.16 986.55 108.007 984.538 109.663C983.395 110.467 982.469 111.538 981.842 112.781C981.216 114.024 980.907 115.402 980.944 116.791C980.933 118.118 981.192 119.434 981.707 120.659C982.222 121.884 982.981 122.993 983.939 123.92C987.284 126.401 991.191 128.033 995.318 128.672C1002.75 130.25 1009.72 133.502 1015.68 138.177C1017.78 140.27 1019.4 142.785 1020.43 145.552C1021.46 148.319 1021.89 151.273 1021.67 154.216C1021.94 159.486 1020.46 164.699 1017.48 169.067C1015.02 173.094 1011.5 176.379 1007.3 178.572C1003.26 180.737 998.704 181.764 994.121 181.542Z" fill="black"/>
<path d="M1051.64 92.4336H1035.47V179.758H1051.64V92.4336Z" fill="black"/>
<path d="M1113.91 90.6479C1118.49 90.5051 1123.02 91.5277 1127.09 93.6181C1130.09 95.8086 1132.55 98.6538 1134.27 101.935C1135.9 105.713 1136.91 109.723 1137.27 113.816C1137.78 118.351 1137.98 122.916 1137.87 127.479V179.754H1121.7V123.914C1122.17 119.452 1120.88 114.982 1118.1 111.439C1116.9 110.354 1115.47 109.529 1113.93 109.018C1112.38 108.507 1110.74 108.32 1109.12 108.469C1105.57 108.336 1102.05 109.157 1098.94 110.845C1095.39 112.465 1092.15 114.676 1089.36 117.38C1086.51 119.821 1084.26 122.867 1082.77 126.291V115.598H1085.16V179.754H1068.99V92.43H1080.97L1084.56 107.875L1080.37 108.469C1083.1 104.871 1086.33 101.671 1089.95 98.9645C1093.41 96.4089 1097.25 94.4046 1101.33 93.0241C1105.4 91.6625 1109.63 90.8629 1113.91 90.6479Z" fill="black"/>
<path d="M1185.77 174.407C1178.99 174.549 1172.32 172.688 1166.61 169.06C1161.03 165.28 1156.5 160.174 1153.43 154.209C1150.23 147.318 1148.6 139.815 1148.64 132.23C1148.53 124.637 1150.17 117.121 1153.43 110.25C1156.12 104.04 1160.74 98.8394 1166.61 95.399C1172.32 91.771 1178.99 89.91 1185.77 90.0526C1192.37 89.9093 1198.85 91.7753 1204.34 95.399C1209.71 99.0828 1213.87 104.246 1216.32 110.25C1219.31 117.187 1220.74 124.688 1220.51 132.23C1220.74 139.771 1219.31 147.273 1216.32 154.209C1213.67 160.095 1209.55 165.208 1204.34 169.06C1198.88 172.763 1192.38 174.637 1185.77 174.407ZM1188.17 214.802C1183.9 214.879 1179.66 214.278 1175.59 213.02C1171.49 211.79 1167.78 209.541 1164.81 206.485C1161.26 202.751 1158.23 198.554 1155.82 194.01L1154.63 191.634L1167.2 183.911C1169.43 188.217 1172.48 192.05 1176.19 195.198C1179.66 197.693 1183.88 198.949 1188.17 198.763C1191.09 198.877 1194 198.351 1196.69 197.222C1199.38 196.092 1201.79 194.387 1203.74 192.228C1208.01 186.15 1210.12 178.835 1209.73 171.437V153.021H1211.52V109.656H1209.73L1213.32 92.4288H1225.3V168.466C1225.5 177.218 1223.87 185.916 1220.51 194.01C1217.81 200.37 1213.21 205.759 1207.33 209.455C1201.59 213.008 1194.94 214.862 1188.17 214.802ZM1188.17 158.962C1191.23 159.046 1194.27 158.45 1197.07 157.216C1199.87 155.983 1202.35 154.143 1204.34 151.833C1208.61 146.437 1210.74 139.673 1210.33 132.824C1210.74 125.974 1208.61 119.211 1204.34 113.814C1202.29 111.571 1199.8 109.777 1197.01 108.549C1194.23 107.322 1191.21 106.687 1188.17 106.687C1185.12 106.687 1182.1 107.322 1179.32 108.549C1176.53 109.777 1174.04 111.571 1172 113.814C1167.72 119.211 1165.59 125.974 1166.01 132.824C1165.59 139.673 1167.72 146.437 1172 151.833C1173.9 154.238 1176.37 156.145 1179.19 157.387C1182.01 158.63 1185.09 159.17 1188.17 158.962Z" fill="black"/>
<path d="M1013.85 59.1677C1018.6 61.5854 1023.02 64.5785 1027.03 68.0783C1033.17 73.3607 1038.42 79.5765 1042.6 86.4937C1046.99 77.5217 1052.2 68.9708 1058.17 60.9498C1065.11 51.5099 1073.38 43.1075 1082.73 36C1074.44 39.5416 1066.76 44.3525 1059.97 50.257C1053.79 55.7297 1048.53 62.1472 1044.4 69.2664C1043.21 66.4938 1041.36 64.0481 1039.01 62.1379C1035.33 59.7538 1031.14 58.2453 1026.78 57.73C1022.42 57.2148 1017.99 57.7068 1013.85 59.1677Z" fill="#00BE00"/>
</svg>
